0
SECTION
2
HEADER
9
$INSUNITS
70
4
9
$ACADVER
1
AC1014
9
$HANDSEED
5
FFFF
0
ENDSEC
0
SECTION
2
TABLES
0
TABLE
2
VPORT
5
8
100
AcDbSymbolTable
0
ENDTAB
0
TABLE
2
LTYPE
5
5
100
AcDbSymbolTable
0
LTYPE
5
14
100
AcDbSymbolTableRecord
100
AcDbLinetypeTableRecord
2
BYBLOCK
70
0
0
LTYPE
5
15
100
AcDbSymbolTableRecord
100
AcDbLinetypeTableRecord
2
BYLAYER
70
0
0
ENDTAB
0
TABLE
2
LAYER
5
2
100
AcDbSymbolTable
70
2
0
LAYER
5
50
100
AcDbSymbolTableRecord
100
AcDbLayerTableRecord
2
0
70
0
6
CONTINUOUS
0
ENDTAB
0
TABLE
2
STYLE
5
3
100
AcDbSymbolTable
70
1
0
STYLE
5
11
100
AcDbSymbolTableRecord
100
AcDbTextStyleTableRecord
2
STANDARD
70
0
0
ENDTAB
0
TABLE
2
VIEW
5
6
100
AcDbSymbolTable
70
0
0
ENDTAB
0
TABLE
2
UCS
5
7
100
AcDbSymbolTable
70
0
0
ENDTAB
0
TABLE
2
APPID
5
9
100
AcDbSymbolTable
70
2
0
APPID
5
12
100
AcDbSymbolTableRecord
100
AcDbRegAppTableRecord
2
ACAD
70
0
0
ENDTAB
0
TABLE
2
DIMSTYLE
5
A
100
AcDbSymbolTable
70
1
0
ENDTAB
0
TABLE
2
BLOCK_RECORD
5
1
100
AcDbSymbolTable
70
1
0
BLOCK_RECORD
5
1F
100
AcDbSymbolTableRecord
100
AcDbBlockTableRecord
2
*MODEL_SPACE
0
BLOCK_RECORD
5
1B
100
AcDbSymbolTableRecord
100
AcDbBlockTableRecord
2
*PAPER_SPACE
0
ENDTAB
0
ENDSEC
0
SECTION
2
BLOCKS
0
BLOCK
5
20
100
AcDbEntity
100
AcDbBlockBegin
2
*MODEL_SPACE
0
ENDBLK
5
21
100
AcDbEntity
100
AcDbBlockEnd
0
BLOCK
5
1C
100
AcDbEntity
100
AcDbBlockBegin
2
*PAPER_SPACE
0
ENDBLK
5
1D
100
AcDbEntity
100
AcDbBlockEnd
0
ENDSEC
0
SECTION
2
ENTITIES
0
LWPOLYLINE
5
100
100
AcDbEntity
8
0
100
AcDbPolyline
90
4
70
1
43
0.0
10
-38.887400000000021
20
94.999999999999972
10
-38.887400000000021
20
-31.999999999999993
10
38.887399999999985
20
-32
10
38.887399999999992
20
94.999999999999972
0
CIRCLE
5
101
100
AcDbEntity
8
0
100
AcDbCircle
10
16.5
20
-1.9999999999999896
30
0
40
1.3
210
0
220
-0
230
1
0
CIRCLE
5
102
100
AcDbEntity
8
0
100
AcDbCircle
10
-16.5
20
-2.0000000000000107
30
0
40
1.3
210
0
220
-0
230
1
0
LWPOLYLINE
5
103
100
AcDbEntity
8
0
100
AcDbPolyline
90
12
70
1
43
0.0
10
23.12303991693134
20
1.174999999999996
42
0.87207391728950956
10
-23.12303991693134
20
1.1749999999999972
10
-26.591122108703871
20
-5.1750000000000007
42
0.88770229039238435
10
26.591122108703871
20
-5.1750000000000007
10
25.684504569876374
20
-5.1749999999999812
42
-0.8839960271855577
10
-25.684504569876371
20
-5.1750000000000007
10
-22.214251619174583
20
1.1749999999999905
42
-0.86723605774642076
10
22.214251619174572
20
1.1750000000000038
10
18.73284214955115
20
-5.1749999999999909
42
-0.8168765138195101
10
-18.482578144217285
20
-6.4038965863087078
10
-19.406588954710681
20
-6.403896586308707
42
0.82458466664871277
10
19.64508526324078
20
-5.1750000000000007
0
LWPOLYLINE
5
104
100
AcDbEntity
8
0
100
AcDbPolyline
90
12
70
1
43
0.0
10
19.406588954710678
20
2.4038965863087092
42
0.82458466664871255
10
-19.64508526324078
20
1.1749999999999938
10
-23.123039916931344
20
-5.1749999999999963
42
0.87207391728950956
10
23.12303991693134
20
-5.1750000000000007
10
26.591122108703882
20
1.1749999999999989
42
0.88770229039238435
10
-26.591122108703871
20
1.1749999999999972
10
-25.684504569876374
20
1.1749999999999683
42
-0.8839960271855577
10
25.684504569876367
20
1.1750000000000016
10
22.214251619174576
20
-5.1749999999999989
42
-0.86723605774642076
10
-22.214251619174572
20
-5.1750000000000078
10
-18.73284214955115
20
1.1749999999999905
42
-0.81687651381950976
10
18.482578144217285
20
2.4038965863087061
0
ARC
5
105
100
AcDbEntity
8
0
100
AcDbCircle
10
13.807691470698501
20
-12.312499999999989
30
0
40
4.7999999999999874
210
0
220
0
230
1
100
AcDbArc
50
138.27619244035509
51
170.49239180042355
0
ARC
5
106
100
AcDbEntity
8
0
100
AcDbCircle
10
0
20
-9.9999999999999911
30
0
40
9.2000000000000082
210
0
220
0
230
1
100
AcDbArc
50
189.50760819957654
51
350.49239180042355
0
ARC
5
107
100
AcDbEntity
8
0
100
AcDbCircle
10
-13.807691470698501
20
-12.312499999999993
30
0
40
4.7999999999999954
210
0
220
-0
230
1
100
AcDbArc
50
9.5076081995764294
51
41.723807559644769
0
ARC
5
108
100
AcDbEntity
8
0
100
AcDbCircle
10
1.1102230246251565e-15
20
-2.7755575615628914e-16
30
0
40
13.700000000000006
210
0
220
0
230
1
100
AcDbArc
50
-41.723807559644769
51
221.72380755964474
0
ENDSEC
0
SECTION
2
OBJECTS
0
DICTIONARY
5
C
100
AcDbDictionary
3
ACAD_GROUP
350
D
3
ACAD_MLINESTYLE
350
17
0
DICTIONARY
5
D
100
AcDbDictionary
0
DICTIONARY
5
1A
330
C
100
AcDbDictionary
0
DICTIONARY
5
17
100
AcDbDictionary
0
ENDSEC
0
EOF
